<svg id="Layer_1" data-name="Layer 1" xmlns="http://www.w3.org/2000/svg" viewBox="0 0 616.62 85.11"><defs><style>.cls-1{fill:none;}.cls-2{fill:#231f20;}</style></defs><path class="cls-1" d="M289,166.64c-2.1-2-3.24-4.59-5.63-6-.65-.32-1.29-.61-1.94-.87s-1.13-.43-1.7-.6a3.92,3.92,0,0,0-.49-.13c-.57-.11-1.13-.2-1.69-.29a12.75,12.75,0,0,0-1.94-.14,15,15,0,0,0-9.13,3.1,16.16,16.16,0,0,0-5.82,8.25,1.56,1.56,0,0,0-.15.39.59.59,0,0,0,0,.13c0,.21-.08.41-.14.62-.14.47-.27.95-.37,1.43s-.25,1.18-.37,1.79a1.7,1.7,0,0,1,0,.22c-.05.41-.1.81-.12,1.2s-.05.86-.05,1.31v.73a2.44,2.44,0,0,0,.05.53,2.63,2.63,0,0,1,.06.39,20.44,20.44,0,0,0,3.14,9.56,13.45,13.45,0,0,0,7.91,6.07c.39.13.78.24,1.16.34s.81.17,1.27.24.77.11,1.16.14a11.45,11.45,0,0,0,1.17.05,15.22,15.22,0,0,0,9.27-3.06,17.13,17.13,0,0,0,6-8.2q.3-1,.54-2a17.47,17.47,0,0,0,.34-2.13c.06-.45.11-.91.14-1.36s0-.87,0-1.26,0-.85-.06-1.28c0,.26,0-.25,0,0,0-.16,9.9-7.69,9.88-7.85C301.07,165.19,291.94,169.51,289,166.64Z" transform="translate(-242.38 -144.61)"/><path d="M291.53,175.75c0-.25,0,.26,0,0Z" transform="translate(-242.38 -144.61)"/><path d="M362.59,198a15.08,15.08,0,0,0-8.16-6.45c-.77-.26-1.75-.54-2.91-.83l-3.59-.92c-1.49-.45-2.91-.92-4.27-1.41a10.49,10.49,0,0,1-3.11-1.6,8.32,8.32,0,0,1-1.07-1.07,3.45,3.45,0,0,1-.62-1.1c0-.1-.09-.21-.14-.31a1.5,1.5,0,0,1-.16-.43,3.9,3.9,0,0,1-.05-.58,4.85,4.85,0,0,1,1.94-3.64,7.82,7.82,0,0,1,4.06-2h.89a13.9,13.9,0,0,1,6.31,1.45,36.89,36.89,0,0,1,5.21,3.16.33.33,0,0,0,.49-.13l4.64-10.38a1.48,1.48,0,0,0-.6-1.88,38.18,38.18,0,0,0-5.22-2.51,33.47,33.47,0,0,0-6.94-1.94c-.91-.13-1.8-.25-2.67-.34a22.67,22.67,0,0,0-2.57-.15,24.38,24.38,0,0,0-10.24,2.23,18.06,18.06,0,0,0-8,7.38,14.44,14.44,0,0,0-1.75,3.49,21,21,0,0,0-1,3.84s0,.06,0,.09a8.76,8.76,0,0,0-.23,1.51c0,.52,0,1,0,1.55v.73a2.78,2.78,0,0,0,.1.73,14.24,14.24,0,0,0,.34,2.23c.16.71.34,1.39.53,2a13,13,0,0,0,5.73,7.42,30.5,30.5,0,0,0,8.93,3.74.49.49,0,0,1,.19,0,.45.45,0,0,0,.19.05c.59.13,1.2.28,1.85.44a21.11,21.11,0,0,1,2,.63,18.06,18.06,0,0,1,4.9,2.76,5.44,5.44,0,0,1,2.28,4.42,6.09,6.09,0,0,1-.1,1.07c-.06.35-.14.72-.25,1.12a1.48,1.48,0,0,1-.1.27l-2.2,2.58-.31.2a8.81,8.81,0,0,1-3,1.17,6.83,6.83,0,0,1-.83.14,8,8,0,0,1-.82,0,.79.79,0,0,1-.24,0,.92.92,0,0,0-.25-.05.64.64,0,0,1-.24-.05.85.85,0,0,0-.24,0,13.33,13.33,0,0,1-7.57-2.67l-.73-.56a27.74,27.74,0,0,0-14.13-5.82V162.5H305c-.1-.22-.21-.44-.32-.66A30.35,30.35,0,0,0,294,150a33.48,33.48,0,0,0-6.75-3.3,35.49,35.49,0,0,0-7-1.74l-.22,0-2.27-.18c-.81-.07-1.6-.1-2.38-.1a34,34,0,0,0-16.6,4.37,30.76,30.76,0,0,0-12.42,12.62,32.13,32.13,0,0,0-2.14,4.9,38,38,0,0,0-1.35,5.09,18.26,18.26,0,0,0-.39,2.62c-.07.85-.1,1.69-.1,2.53a32.92,32.92,0,0,0,17.47,28.63,31,31,0,0,0,6.26,2.43,38.22,38.22,0,0,0,6.4,1.15h.31c.39,0,.78,0,1.16,0s.85.05,1.31.05a34.72,34.72,0,0,0,18.15-5.19,31.12,31.12,0,0,0,8.47-7.44v14.35a13.55,13.55,0,0,0,13.55,13.55h2.36a55.56,55.56,0,0,1,12,2.82,32.07,32.07,0,0,0,11.45,2.57h1.07c.9,0,1.84-.05,2.81-.14s1.94-.25,2.92-.44c1.16-.26,2.32-.57,3.49-.92a26.43,26.43,0,0,0,3.34-1.28l.11-.06a18.34,18.34,0,0,0,7.08-7,24.55,24.55,0,0,0,3.22-9.33c0-.19,0-.37,0-.56s0-.45,0-.7c0-.43.06-.88.06-1.32v-.42A19,19,0,0,0,362.59,198Zm-71.06-22.28c0,.43.06.85.06,1.28s0,.81,0,1.26-.08.91-.14,1.36a17.47,17.47,0,0,1-.34,2.13q-.24,1.08-.54,2a17.13,17.13,0,0,1-6,8.2,15.22,15.22,0,0,1-9.27,3.06,11.45,11.45,0,0,1-1.17-.05c-.39,0-.78-.08-1.16-.14s-.88-.15-1.27-.24-.77-.21-1.16-.34a13.45,13.45,0,0,1-7.91-6.07,20.44,20.44,0,0,1-3.14-9.56,2.63,2.63,0,0,0-.06-.39,2.44,2.44,0,0,1-.05-.53V177c0-.45,0-.89.05-1.31s.07-.79.12-1.2a1.7,1.7,0,0,0,0-.22c.12-.61.25-1.21.37-1.79s.23-1,.37-1.43c.06-.21.1-.41.14-.62a.59.59,0,0,1,0-.13,1.56,1.56,0,0,1,.15-.39,16.16,16.16,0,0,1,5.82-8.25,15,15,0,0,1,9.13-3.1,12.75,12.75,0,0,1,1.94.14c.56.09,1.12.18,1.69.29a3.92,3.92,0,0,1,.49.13c.57.17,1.13.38,1.7.6s1.29.55,1.94.87c2.39,1.43,3.53,4,5.63,6,3,2.87,12.1-1.45,12.44,1.26C301.43,168.06,291.53,175.59,291.53,175.75Z" transform="translate(-242.38 -144.61)"/><path class="cls-2" d="M614.57,167a11.36,11.36,0,0,1-4.17-.75,10,10,0,0,1-3.34-2.11,9.58,9.58,0,0,1-2.19-3.17,10.57,10.57,0,0,1,0-7.92,9.54,9.54,0,0,1,2.19-3.16,10.23,10.23,0,0,1,3.32-2.09,12.2,12.2,0,0,1,8.34,0,9.74,9.74,0,0,1,3.31,2.08A9.33,9.33,0,0,1,624.2,153a10.54,10.54,0,0,1,0,8,9.59,9.59,0,0,1-5.48,5.26A11.46,11.46,0,0,1,614.57,167Zm0-3.16a7.21,7.21,0,0,0,2.7-.5,6.33,6.33,0,0,0,2.14-1.41,6.52,6.52,0,0,0,1.43-2.16,7.71,7.71,0,0,0,0-5.49,6.34,6.34,0,0,0-1.42-2.16,6.52,6.52,0,0,0-2.16-1.41,7.21,7.21,0,0,0-2.7-.5,7.4,7.4,0,0,0-2.73.5,6.21,6.21,0,0,0-2.18,1.43,7.16,7.16,0,0,0-1.44,7.6,6.86,6.86,0,0,0,1.44,2.17,6.21,6.21,0,0,0,2.18,1.43A7.4,7.4,0,0,0,614.57,163.82Z" transform="translate(-242.38 -144.61)"/><path class="cls-2" d="M636.86,151.72a7,7,0,0,1,3.17.69,5.16,5.16,0,0,1,2.19,2.13,7.45,7.45,0,0,1,.82,3.68v8.48h-3.47v-8a4.16,4.16,0,0,0-.91-2.94,3.39,3.39,0,0,0-2.6-1,4.53,4.53,0,0,0-2.16.5,3.42,3.42,0,0,0-1.46,1.48,5.37,5.37,0,0,0-.51,2.48v7.48H628.5V151.91h3.29v4l-.58-1.24a5.18,5.18,0,0,1,2.23-2.19A7.24,7.24,0,0,1,636.86,151.72Z" transform="translate(-242.38 -144.61)"/><path class="cls-2" d="M649.18,149.47a2.18,2.18,0,0,1-1.59-.61,2,2,0,0,1-.62-1.49,2,2,0,0,1,.62-1.44,2.18,2.18,0,0,1,1.59-.61,2.29,2.29,0,0,1,1.6.57,1.87,1.87,0,0,1,.62,1.45,2.08,2.08,0,0,1-.61,1.51A2.17,2.17,0,0,1,649.18,149.47Zm-1.71,17.23V151.91h3.43V166.7Z" transform="translate(-242.38 -144.61)"/><path class="cls-2" d="M655.47,166.7V146.15h3.43V166.7Z" transform="translate(-242.38 -144.61)"/><path class="cls-2" d="M665.19,149.47a2.15,2.15,0,0,1-1.59-.61,2,2,0,0,1-.62-1.49,1.91,1.91,0,0,1,.62-1.44,2.15,2.15,0,0,1,1.59-.61,2.25,2.25,0,0,1,1.59.57,1.85,1.85,0,0,1,.63,1.45,2.12,2.12,0,0,1-.61,1.51A2.17,2.17,0,0,1,665.19,149.47Zm-1.72,17.23V151.91h3.44V166.7Z" transform="translate(-242.38 -144.61)"/><path class="cls-2" d="M679.84,151.72a7,7,0,0,1,3.17.69,5.11,5.11,0,0,1,2.19,2.13,7.45,7.45,0,0,1,.82,3.68v8.48h-3.47v-8a4.16,4.16,0,0,0-.91-2.94,3.39,3.39,0,0,0-2.6-1,4.59,4.59,0,0,0-2.16.5,3.48,3.48,0,0,0-1.46,1.48,5.37,5.37,0,0,0-.51,2.48v7.48h-3.43V151.91h3.29v4l-.58-1.24a5.18,5.18,0,0,1,2.23-2.19A7.24,7.24,0,0,1,679.84,151.72Z" transform="translate(-242.38 -144.61)"/><path class="cls-2" d="M697.4,166.89a9.11,9.11,0,0,1-4.31-1,7.18,7.18,0,0,1-2.85-2.69,7.55,7.55,0,0,1-1-3.92,7.78,7.78,0,0,1,1-3.92,7.14,7.14,0,0,1,2.72-2.68,7.78,7.78,0,0,1,3.94-1,7.63,7.63,0,0,1,3.85.95,6.9,6.9,0,0,1,2.66,2.67,8.14,8.14,0,0,1,1,4.07c0,.13,0,.3,0,.49s0,.36-.05.51H692v-2.3h10.5l-1.39.72a4.35,4.35,0,0,0-.51-2.23,3.86,3.86,0,0,0-1.48-1.52,4.4,4.4,0,0,0-2.22-.54,4.57,4.57,0,0,0-2.23.54,3.74,3.74,0,0,0-1.51,1.54,4.85,4.85,0,0,0-.52,2.3v.55a4.63,4.63,0,0,0,.59,2.35,4.07,4.07,0,0,0,1.71,1.6,5.66,5.66,0,0,0,2.57.56,5.78,5.78,0,0,0,2.25-.41,5.3,5.3,0,0,0,1.77-1.22l1.88,2.16a6.51,6.51,0,0,1-2.53,1.77A9.11,9.11,0,0,1,697.4,166.89Z" transform="translate(-242.38 -144.61)"/><path class="cls-2" d="M715.65,166.7V147.31h3.6V166.7Z" transform="translate(-242.38 -144.61)"/><path class="cls-2" d="M732.54,151.72a7,7,0,0,1,3.17.69,5.11,5.11,0,0,1,2.19,2.13,7.34,7.34,0,0,1,.82,3.68v8.48h-3.46v-8a4.16,4.16,0,0,0-.92-2.94,3.38,3.38,0,0,0-2.6-1,4.59,4.59,0,0,0-2.16.5,3.4,3.4,0,0,0-1.45,1.48,5.24,5.24,0,0,0-.52,2.48v7.48h-3.43V151.91h3.3v4l-.59-1.24a5.18,5.18,0,0,1,2.23-2.19A7.24,7.24,0,0,1,732.54,151.72Z" transform="translate(-242.38 -144.61)"/><path class="cls-2" d="M741.16,154.79V152H751v2.77Zm7.53,12.1a5.27,5.27,0,0,1-3.77-1.26,4.88,4.88,0,0,1-1.33-3.7V148.64H747v13.18a2.28,2.28,0,0,0,.55,1.64,2,2,0,0,0,1.55.58,2.88,2.88,0,0,0,1.89-.61l1,2.47a4.23,4.23,0,0,1-1.52.74A6.46,6.46,0,0,1,748.69,166.89Z" transform="translate(-242.38 -144.61)"/><path class="cls-2" d="M761.32,166.89a9.08,9.08,0,0,1-4.31-1,7.12,7.12,0,0,1-2.85-2.69,7.46,7.46,0,0,1-1-3.92,7.78,7.78,0,0,1,1-3.92,7.14,7.14,0,0,1,2.72-2.68,7.76,7.76,0,0,1,3.94-1,7.66,7.66,0,0,1,3.85.95,7,7,0,0,1,2.66,2.67,8.14,8.14,0,0,1,1,4.07c0,.13,0,.3,0,.49s0,.36,0,.51H755.89v-2.3h10.5l-1.39.72a4.35,4.35,0,0,0-.51-2.23,3.93,3.93,0,0,0-1.48-1.52,4.4,4.4,0,0,0-2.22-.54,4.57,4.57,0,0,0-2.23.54,3.68,3.68,0,0,0-1.51,1.54,4.85,4.85,0,0,0-.52,2.3v.55a4.53,4.53,0,0,0,.59,2.35,4.07,4.07,0,0,0,1.71,1.6,5.63,5.63,0,0,0,2.57.56,5.7,5.7,0,0,0,2.24-.41,5.24,5.24,0,0,0,1.78-1.22l1.88,2.16a6.51,6.51,0,0,1-2.53,1.77A9.11,9.11,0,0,1,761.32,166.89Z" transform="translate(-242.38 -144.61)"/><path class="cls-2" d="M771.62,166.7V151.91h3.3V156l-.39-1.19a4.59,4.59,0,0,1,2.08-2.29,7.28,7.28,0,0,1,3.51-.78V155l-.38,0h-.36a4.31,4.31,0,0,0-3.16,1.13,4.63,4.63,0,0,0-1.17,3.46v7.15Z" transform="translate(-242.38 -144.61)"/><path class="cls-2" d="M791.48,151.72a7,7,0,0,1,3.17.69,5.22,5.22,0,0,1,2.19,2.13,7.45,7.45,0,0,1,.81,3.68v8.48h-3.46v-8a4.16,4.16,0,0,0-.91-2.94,3.4,3.4,0,0,0-2.61-1,4.59,4.59,0,0,0-2.16.5,3.45,3.45,0,0,0-1.45,1.48,5.37,5.37,0,0,0-.51,2.48v7.48h-3.44V151.91h3.3v4l-.58-1.24a5.18,5.18,0,0,1,2.23-2.19A7.22,7.22,0,0,1,791.48,151.72Z" transform="translate(-242.38 -144.61)"/><path class="cls-2" d="M806.65,166.89a13,13,0,0,1-3.57-.48,9.85,9.85,0,0,1-2.71-1.18l1.33-2.63a9.33,9.33,0,0,0,2.38,1,9.87,9.87,0,0,0,2.8.4,4.79,4.79,0,0,0,2.34-.43,1.31,1.31,0,0,0,.73-1.18,1,1,0,0,0-.5-.92,3.64,3.64,0,0,0-1.3-.49c-.54-.11-1.13-.21-1.79-.3s-1.31-.22-2-.38a6.73,6.73,0,0,1-1.79-.69,3.74,3.74,0,0,1-1.3-1.23,4.28,4.28,0,0,1,.3-4.5,5.13,5.13,0,0,1,2.26-1.62,9.23,9.23,0,0,1,3.45-.58,13.6,13.6,0,0,1,3,.34,8.74,8.74,0,0,1,2.57,1l-1.36,2.63a7,7,0,0,0-2.11-.85,10.43,10.43,0,0,0-2.13-.23A4.78,4.78,0,0,0,805,155a1.36,1.36,0,0,0-.77,1.18,1.12,1.12,0,0,0,.5,1,3.83,3.83,0,0,0,1.3.51c.54.12,1.13.23,1.79.33s1.3.23,2,.39a7.54,7.54,0,0,1,1.78.67,3.32,3.32,0,0,1,1.32,1.2,4.15,4.15,0,0,1-.32,4.45,5.23,5.23,0,0,1-2.3,1.57A9.88,9.88,0,0,1,806.65,166.89Z" transform="translate(-242.38 -144.61)"/><path class="cls-2" d="M824.71,151.72a7,7,0,0,1,3.17.69,5.11,5.11,0,0,1,2.19,2.13,7.34,7.34,0,0,1,.82,3.68v8.48h-3.46v-8a4.16,4.16,0,0,0-.92-2.94,3.38,3.38,0,0,0-2.6-1,4.59,4.59,0,0,0-2.16.5,3.48,3.48,0,0,0-1.46,1.48,5.37,5.37,0,0,0-.51,2.48v7.48h-3.43V146.15h3.43v9.77l-.72-1.24a5.18,5.18,0,0,1,2.23-2.19A7.24,7.24,0,0,1,824.71,151.72Z" transform="translate(-242.38 -144.61)"/><path class="cls-2" d="M837,149.47a2.19,2.19,0,0,1-1.6-.61,2,2,0,0,1-.62-1.49,2,2,0,0,1,.62-1.44,2.19,2.19,0,0,1,1.6-.61,2.28,2.28,0,0,1,1.59.57,1.87,1.87,0,0,1,.62,1.45,2.08,2.08,0,0,1-.61,1.51A2.15,2.15,0,0,1,837,149.47Zm-1.72,17.23V151.91h3.43V166.7Z" transform="translate(-242.38 -144.61)"/><path class="cls-2" d="M843.32,172.07V151.91h3.3v3.49l-.14,3.93.28,3.93v8.81Zm8.17-5.18a6.66,6.66,0,0,1-3.29-.81,5.75,5.75,0,0,1-2.33-2.51,9.43,9.43,0,0,1-.86-4.27,9.72,9.72,0,0,1,.82-4.28,5.49,5.49,0,0,1,2.31-2.49,6.92,6.92,0,0,1,3.35-.81,7.76,7.76,0,0,1,3.85.94,6.76,6.76,0,0,1,2.67,2.66,8.56,8.56,0,0,1,0,8,6.91,6.91,0,0,1-2.67,2.64A7.76,7.76,0,0,1,851.49,166.89Zm-.41-2.93a4.38,4.38,0,0,0,2.25-.58,4.27,4.27,0,0,0,1.57-1.64,5.44,5.44,0,0,0,0-4.89,4.1,4.1,0,0,0-1.57-1.6,4.67,4.67,0,0,0-4.47,0,4.12,4.12,0,0,0-1.58,1.6,5.44,5.44,0,0,0,0,4.89,4.3,4.3,0,0,0,1.58,1.64A4.4,4.4,0,0,0,851.08,164Z" transform="translate(-242.38 -144.61)"/><path class="cls-2" d="M611.49,200.21a14.41,14.41,0,0,1-4.33-.65,9.77,9.77,0,0,1-3.31-1.68l1.24-2.79a10.55,10.55,0,0,0,2.88,1.52,10.39,10.39,0,0,0,3.52.61,7.64,7.64,0,0,0,2.47-.33,3.07,3.07,0,0,0,1.38-.9,2,2,0,0,0,.45-1.29,1.8,1.8,0,0,0-.64-1.43,4.94,4.94,0,0,0-1.65-.86c-.67-.21-1.42-.4-2.24-.58a25,25,0,0,1-2.47-.65,11.49,11.49,0,0,1-2.25-1,4.6,4.6,0,0,1-1.65-1.6,4.66,4.66,0,0,1-.63-2.54,5.21,5.21,0,0,1,.85-2.9,5.8,5.8,0,0,1,2.57-2.1,10.58,10.58,0,0,1,4.39-.79,14.11,14.11,0,0,1,3.47.44,10,10,0,0,1,3,1.28l-1.14,2.79a11,11,0,0,0-2.68-1.15,10.25,10.25,0,0,0-2.66-.37,6.8,6.8,0,0,0-2.41.36,2.85,2.85,0,0,0-1.37,1,2.14,2.14,0,0,0-.43,1.31,1.79,1.79,0,0,0,.62,1.43,4.4,4.4,0,0,0,1.63.84c.68.21,1.43.4,2.26.58s1.65.41,2.47.65a11.06,11.06,0,0,1,2.24,1,4.89,4.89,0,0,1,1.65,1.58,4.67,4.67,0,0,1,.62,2.51,5.12,5.12,0,0,1-.85,2.86,5.8,5.8,0,0,1-2.58,2.11A10.71,10.71,0,0,1,611.49,200.21Z" transform="translate(-242.38 -144.61)"/><path class="cls-2" d="M623.54,205.5a6.88,6.88,0,0,1-2.19-.36,4.74,4.74,0,0,1-1.77-1l1.36-2.52a4.39,4.39,0,0,0,1.17.72,3.39,3.39,0,0,0,1.37.28,2.39,2.39,0,0,0,1.53-.47,4.48,4.48,0,0,0,1.08-1.61l.83-1.88.33-.45,5.57-13.07h3.32l-6.92,16a9.84,9.84,0,0,1-1.54,2.59,4.84,4.84,0,0,1-1.88,1.36A6.43,6.43,0,0,1,623.54,205.5Zm3-5-6.68-15.32h3.58l5.45,12.77Z" transform="translate(-242.38 -144.61)"/><path class="cls-2" d="M642.7,200.13a13,13,0,0,1-3.57-.49,9.29,9.29,0,0,1-2.71-1.18l1.33-2.63a9,9,0,0,0,2.38,1,9.87,9.87,0,0,0,2.8.4,4.79,4.79,0,0,0,2.34-.43,1.31,1.31,0,0,0,.73-1.17,1,1,0,0,0-.5-.93,4.16,4.16,0,0,0-1.3-.49c-.54-.11-1.13-.21-1.79-.3s-1.31-.22-2-.37a6.75,6.75,0,0,1-1.79-.7,3.57,3.57,0,0,1-1.3-1.23,4.28,4.28,0,0,1,.3-4.5,5.3,5.3,0,0,1,2.26-1.62,9.23,9.23,0,0,1,3.45-.58,13,13,0,0,1,3,.35,9,9,0,0,1,2.57.95l-1.36,2.63a7.11,7.11,0,0,0-2.11-.84,9.8,9.8,0,0,0-2.13-.24,4.65,4.65,0,0,0-2.33.46,1.35,1.35,0,0,0-.77,1.18,1.11,1.11,0,0,0,.5,1,3.83,3.83,0,0,0,1.3.52c.53.12,1.13.23,1.79.33s1.3.23,1.95.39a7.26,7.26,0,0,1,1.78.66,3.47,3.47,0,0,1,1.32,1.2,3.74,3.74,0,0,1,.5,2,3.69,3.69,0,0,1-.82,2.42,5.33,5.33,0,0,1-2.3,1.58A9.88,9.88,0,0,1,642.7,200.13Z" transform="translate(-242.38 -144.61)"/><path class="cls-2" d="M650.4,188v-2.77h9.86V188Zm7.54,12.11a5.27,5.27,0,0,1-3.77-1.26,4.86,4.86,0,0,1-1.33-3.7V181.88h3.43v13.18a2.27,2.27,0,0,0,.56,1.63,2,2,0,0,0,1.55.58,2.85,2.85,0,0,0,1.88-.61l1,2.47a4.5,4.5,0,0,1-1.52.75A6.92,6.92,0,0,1,657.94,200.13Z" transform="translate(-242.38 -144.61)"/><path class="cls-2" d="M670.56,200.13a9,9,0,0,1-4.3-1,7.09,7.09,0,0,1-2.85-2.68,7.49,7.49,0,0,1-1-3.92,7.64,7.64,0,0,1,1-3.92,7.14,7.14,0,0,1,2.71-2.69,7.93,7.93,0,0,1,3.95-1,7.76,7.76,0,0,1,3.85,1,7,7,0,0,1,2.66,2.68,8.2,8.2,0,0,1,1,4.07c0,.13,0,.29,0,.48s0,.37,0,.52H665.14v-2.3h10.49l-1.38.72a4.32,4.32,0,0,0-.51-2.23,3.85,3.85,0,0,0-1.49-1.53,4.33,4.33,0,0,0-2.21-.54,4.54,4.54,0,0,0-2.23.54,3.68,3.68,0,0,0-1.51,1.54,4.88,4.88,0,0,0-.53,2.3v.55a4.58,4.58,0,0,0,.6,2.36,4.09,4.09,0,0,0,1.7,1.59,5.57,5.57,0,0,0,2.58.57,5.7,5.7,0,0,0,2.24-.42,5,5,0,0,0,1.77-1.22l1.89,2.16a6.68,6.68,0,0,1-2.54,1.78A9.23,9.23,0,0,1,670.56,200.13Z" transform="translate(-242.38 -144.61)"/><path class="cls-2" d="M699.51,185a6.88,6.88,0,0,1,3.14.69,5,5,0,0,1,2.15,2.13,7.83,7.83,0,0,1,.77,3.69v8.47h-3.43v-8a4.25,4.25,0,0,0-.88-2.94,3.16,3.16,0,0,0-2.47-1,4,4,0,0,0-2,.49,3.4,3.4,0,0,0-1.36,1.49,5.54,5.54,0,0,0-.48,2.45v7.5H691.5v-8a4.3,4.3,0,0,0-.87-2.94,3.18,3.18,0,0,0-2.48-1,4,4,0,0,0-2,.49,3.38,3.38,0,0,0-1.35,1.49,5.4,5.4,0,0,0-.49,2.45v7.5h-3.43V185.14h3.29v4l-.61-1.19a5.29,5.29,0,0,1,2.18-2.19A6.82,6.82,0,0,1,689,185a6.34,6.34,0,0,1,3.6,1,5,5,0,0,1,2,3.16l-1.33-.5a5.74,5.74,0,0,1,2.36-2.66A7.19,7.19,0,0,1,699.51,185Z" transform="translate(-242.38 -144.61)"/></svg>