<svg id="Layer_1" data-name="Layer 1" xmlns="http://www.w3.org/2000/svg" viewBox="0 0 383.35 85.11"><defs><style>.cls-1{fill:none;}.cls-2{fill:#231f20;}</style></defs><path class="cls-1" d="M141.37,132.08c-2.1-2-3.24-4.59-5.63-6-.65-.32-1.29-.61-1.94-.87s-1.13-.43-1.7-.6a3.92,3.92,0,0,0-.49-.13c-.57-.11-1.13-.2-1.69-.29A12.75,12.75,0,0,0,128,124a15,15,0,0,0-9.13,3.1,16.16,16.16,0,0,0-5.82,8.25,1.56,1.56,0,0,0-.15.39.59.59,0,0,0,0,.13c0,.21-.08.41-.14.62-.14.47-.27.95-.37,1.43s-.25,1.18-.37,1.79a1.7,1.7,0,0,1,0,.22c0,.41-.1.81-.12,1.2s0,.86,0,1.31v.73a2.44,2.44,0,0,0,0,.53,2.63,2.63,0,0,1,.06.39,20.44,20.44,0,0,0,3.14,9.56,13.45,13.45,0,0,0,7.91,6.07c.39.13.78.24,1.16.34s.81.17,1.27.24.77.11,1.16.14a11.45,11.45,0,0,0,1.17.05,15.22,15.22,0,0,0,9.27-3.06,17.13,17.13,0,0,0,6-8.2q.3-1,.54-2a17.47,17.47,0,0,0,.34-2.13c.06-.45.11-.91.14-1.36s.05-.87.05-1.26,0-.85-.06-1.28c0,.26,0-.25,0,0,0-.16,9.9-7.69,9.88-7.85C153.47,130.63,144.34,135,141.37,132.08Z" transform="translate(-94.78 -110.05)"/><path d="M143.93,141.19c0-.25,0,.26,0,0Z" transform="translate(-94.78 -110.05)"/><path d="M215,163.47a15.08,15.08,0,0,0-8.16-6.45c-.77-.26-1.75-.54-2.91-.83l-3.59-.92c-1.49-.45-2.91-.92-4.27-1.41a10.49,10.49,0,0,1-3.11-1.6,8.32,8.32,0,0,1-1.07-1.07,3.45,3.45,0,0,1-.62-1.1c0-.1-.09-.21-.14-.31a1.5,1.5,0,0,1-.16-.43,3.9,3.9,0,0,1-.05-.58,4.85,4.85,0,0,1,1.94-3.64,7.82,7.82,0,0,1,4.06-2h.89a13.9,13.9,0,0,1,6.31,1.45,36.89,36.89,0,0,1,5.21,3.16.33.33,0,0,0,.49-.13l4.64-10.38a1.48,1.48,0,0,0-.6-1.88,38.18,38.18,0,0,0-5.22-2.51,33.47,33.47,0,0,0-6.94-1.94c-.91-.13-1.8-.25-2.67-.34a22.67,22.67,0,0,0-2.57-.15,24.38,24.38,0,0,0-10.24,2.23,18.06,18.06,0,0,0-8,7.38,14.44,14.44,0,0,0-1.75,3.49,21,21,0,0,0-1,3.84s0,.06,0,.09a8.76,8.76,0,0,0-.23,1.51c0,.52-.05,1-.05,1.55v.73a2.78,2.78,0,0,0,.1.73,14.24,14.24,0,0,0,.34,2.23c.16.71.34,1.39.53,2a13,13,0,0,0,5.73,7.42,30.5,30.5,0,0,0,8.93,3.74.49.49,0,0,1,.19,0,.45.45,0,0,0,.19.05c.59.13,1.2.28,1.85.44a21.11,21.11,0,0,1,2,.63,18.06,18.06,0,0,1,4.9,2.76,5.44,5.44,0,0,1,2.28,4.42,6.09,6.09,0,0,1-.1,1.07c-.06.35-.14.72-.25,1.12a1.48,1.48,0,0,1-.1.27l-2.2,2.58-.31.2a8.81,8.81,0,0,1-3,1.17,6.83,6.83,0,0,1-.83.14,8,8,0,0,1-.82,0,.79.79,0,0,1-.24,0,.92.92,0,0,0-.25-.05.64.64,0,0,1-.24-.05.85.85,0,0,0-.24,0,13.33,13.33,0,0,1-7.57-2.67l-.73-.56a27.74,27.74,0,0,0-14.13-5.82V127.94H157.42c-.1-.22-.21-.44-.32-.66a30.35,30.35,0,0,0-10.68-11.89,33.48,33.48,0,0,0-6.75-3.3,35.49,35.49,0,0,0-7-1.74l-.22,0-2.27-.18c-.81-.07-1.6-.1-2.38-.1a34,34,0,0,0-16.6,4.37A30.76,30.76,0,0,0,98.76,127a32.13,32.13,0,0,0-2.14,4.9A38,38,0,0,0,95.27,137a18.26,18.26,0,0,0-.39,2.62c-.07.85-.1,1.69-.1,2.53a32.92,32.92,0,0,0,17.47,28.63,31,31,0,0,0,6.26,2.43,38.22,38.22,0,0,0,6.4,1.15h.31c.39,0,.78,0,1.16,0s.85.05,1.31.05a34.72,34.72,0,0,0,18.15-5.19,31.12,31.12,0,0,0,8.47-7.44v14.35a13.55,13.55,0,0,0,13.55,13.55h2.36a55.56,55.56,0,0,1,12,2.82,32.07,32.07,0,0,0,11.45,2.57h1.07c.9,0,1.84,0,2.81-.14s1.94-.25,2.92-.44c1.16-.26,2.32-.57,3.49-.92a26.43,26.43,0,0,0,3.34-1.28l.11-.06a18.34,18.34,0,0,0,7.08-7,24.55,24.55,0,0,0,3.22-9.33c0-.19,0-.37,0-.56s0-.45,0-.7c0-.43.06-.88.06-1.32V173A19,19,0,0,0,215,163.47Zm-71.06-22.28c0,.43.06.85.06,1.28s0,.81-.05,1.26-.08.91-.14,1.36a17.47,17.47,0,0,1-.34,2.13q-.24,1.08-.54,2a17.13,17.13,0,0,1-6,8.2,15.22,15.22,0,0,1-9.27,3.06,11.45,11.45,0,0,1-1.17-.05c-.39,0-.78-.08-1.16-.14s-.88-.15-1.27-.24-.77-.21-1.16-.34a13.45,13.45,0,0,1-7.91-6.07,20.44,20.44,0,0,1-3.14-9.56,2.63,2.63,0,0,0-.06-.39,2.44,2.44,0,0,1,0-.53v-.73c0-.45,0-.89,0-1.31s.07-.79.12-1.2a1.7,1.7,0,0,0,0-.22c.12-.61.25-1.21.37-1.79s.23-1,.37-1.43c.06-.21.1-.41.14-.62a.59.59,0,0,1,0-.13,1.56,1.56,0,0,1,.15-.39,16.16,16.16,0,0,1,5.82-8.25A15,15,0,0,1,128,124a12.75,12.75,0,0,1,1.94.14c.56.09,1.12.18,1.69.29a3.92,3.92,0,0,1,.49.13c.57.17,1.13.38,1.7.6s1.29.55,1.94.87c2.39,1.43,3.53,4,5.63,6,3,2.87,12.1-1.45,12.44,1.26C153.83,133.5,143.93,141,143.93,141.19Z" transform="translate(-94.78 -110.05)"/><path class="cls-2" d="M233.7,156.51a11.43,11.43,0,0,1-4.17-.74,9.9,9.9,0,0,1-3.33-2.11,9.58,9.58,0,0,1-2.19-3.17,10.44,10.44,0,0,1,0-7.92,9.54,9.54,0,0,1,2.19-3.16,10.23,10.23,0,0,1,3.32-2.09,11.34,11.34,0,0,1,4.18-.75,11.51,11.51,0,0,1,4.16.74,9.84,9.84,0,0,1,3.31,2.08,9.47,9.47,0,0,1,2.17,3.17,10.54,10.54,0,0,1,0,8,9.68,9.68,0,0,1-2.17,3.17,9.87,9.87,0,0,1-3.31,2.09A11.51,11.51,0,0,1,233.7,156.51Zm0-3.15a7.17,7.17,0,0,0,2.7-.5,6.37,6.37,0,0,0,2.15-1.41,6.68,6.68,0,0,0,1.43-2.16,7.2,7.2,0,0,0,.51-2.75,7.38,7.38,0,0,0-.5-2.74,6.23,6.23,0,0,0-1.43-2.16,6.52,6.52,0,0,0-2.16-1.41,7.17,7.17,0,0,0-2.7-.5,7.31,7.31,0,0,0-2.72.5,6.13,6.13,0,0,0-2.18,1.43,7.1,7.1,0,0,0-1.44,7.6,6.86,6.86,0,0,0,1.44,2.17,6.13,6.13,0,0,0,2.18,1.43A7.31,7.31,0,0,0,233.7,153.36Z" transform="translate(-94.78 -110.05)"/><path class="cls-2" d="M256,141.25a7,7,0,0,1,3.17.7,5.22,5.22,0,0,1,2.19,2.13,7.45,7.45,0,0,1,.81,3.68v8.48h-3.46v-8a4.16,4.16,0,0,0-.91-2.94,3.4,3.4,0,0,0-2.61-1,4.59,4.59,0,0,0-2.16.5,3.45,3.45,0,0,0-1.45,1.48,5.37,5.37,0,0,0-.51,2.48v7.48h-3.44V141.45h3.3v4l-.58-1.24a5.18,5.18,0,0,1,2.23-2.19A7.19,7.19,0,0,1,256,141.25Z" transform="translate(-94.78 -110.05)"/><path class="cls-2" d="M268.32,139a2.15,2.15,0,0,1-1.59-.61,2,2,0,0,1-.62-1.49,1.91,1.91,0,0,1,.62-1.44,2.15,2.15,0,0,1,1.59-.61,2.25,2.25,0,0,1,1.59.57,1.85,1.85,0,0,1,.63,1.45,2.12,2.12,0,0,1-.61,1.51A2.17,2.17,0,0,1,268.32,139Zm-1.72,17.23V141.45H270v14.79Z" transform="translate(-94.78 -110.05)"/><path class="cls-2" d="M274.61,156.24V135.69H278v20.55Z" transform="translate(-94.78 -110.05)"/><path class="cls-2" d="M284.33,139a2.15,2.15,0,0,1-1.59-.61,2,2,0,0,1-.63-1.49,1.92,1.92,0,0,1,.63-1.44,2.15,2.15,0,0,1,1.59-.61,2.26,2.26,0,0,1,1.59.57,1.84,1.84,0,0,1,.62,1.45,2.08,2.08,0,0,1-.61,1.51A2.15,2.15,0,0,1,284.33,139Zm-1.72,17.23V141.45h3.44v14.79Z" transform="translate(-94.78 -110.05)"/><path class="cls-2" d="M299,141.25a7,7,0,0,1,3.17.7,5.22,5.22,0,0,1,2.19,2.13,7.45,7.45,0,0,1,.81,3.68v8.48h-3.46v-8a4.16,4.16,0,0,0-.91-2.94,3.4,3.4,0,0,0-2.61-1,4.59,4.59,0,0,0-2.16.5,3.45,3.45,0,0,0-1.45,1.48,5.37,5.37,0,0,0-.51,2.48v7.48h-3.44V141.45h3.3v4l-.58-1.24a5.18,5.18,0,0,1,2.23-2.19A7.22,7.22,0,0,1,299,141.25Z" transform="translate(-94.78 -110.05)"/><path class="cls-2" d="M316.54,156.43a9.08,9.08,0,0,1-4.31-1,7.12,7.12,0,0,1-2.85-2.69,7.46,7.46,0,0,1-1-3.92,7.68,7.68,0,0,1,1-3.92,7.12,7.12,0,0,1,2.71-2.68,7.83,7.83,0,0,1,3.95-1,7.67,7.67,0,0,1,3.85,1,7,7,0,0,1,2.66,2.67,8.22,8.22,0,0,1,1,4.07c0,.13,0,.29,0,.49s0,.36,0,.51H311.11v-2.3H321.6l-1.38.72a4.35,4.35,0,0,0-.51-2.23,3.93,3.93,0,0,0-1.48-1.52,4.4,4.4,0,0,0-2.22-.54,4.57,4.57,0,0,0-2.23.54,3.62,3.62,0,0,0-1.51,1.54,4.85,4.85,0,0,0-.52,2.3V149a4.53,4.53,0,0,0,.59,2.35A4,4,0,0,0,314,153a6.27,6.27,0,0,0,4.82.15,5.11,5.11,0,0,0,1.77-1.22l1.89,2.16a6.55,6.55,0,0,1-2.54,1.77A9,9,0,0,1,316.54,156.43Z" transform="translate(-94.78 -110.05)"/><path class="cls-2" d="M334.79,156.24V136.85h3.6v19.39Z" transform="translate(-94.78 -110.05)"/><path class="cls-2" d="M351.68,141.25a7,7,0,0,1,3.17.7,5.22,5.22,0,0,1,2.19,2.13,7.45,7.45,0,0,1,.82,3.68v8.48h-3.47v-8a4.16,4.16,0,0,0-.91-2.94,3.39,3.39,0,0,0-2.6-1,4.53,4.53,0,0,0-2.16.5,3.42,3.42,0,0,0-1.46,1.48,5.37,5.37,0,0,0-.51,2.48v7.48h-3.43V141.45h3.29v4l-.58-1.24a5.18,5.18,0,0,1,2.23-2.19A7.25,7.25,0,0,1,351.68,141.25Z" transform="translate(-94.78 -110.05)"/><path class="cls-2" d="M360.29,144.33v-2.77h9.86v2.77Zm7.54,12.1a5.27,5.27,0,0,1-3.77-1.26,4.84,4.84,0,0,1-1.33-3.7V138.18h3.43v13.18a2.28,2.28,0,0,0,.56,1.64,2,2,0,0,0,1.55.58,2.85,2.85,0,0,0,1.88-.61l1,2.46a4.16,4.16,0,0,1-1.52.75A6.46,6.46,0,0,1,367.83,156.43Z" transform="translate(-94.78 -110.05)"/><path class="cls-2" d="M380.46,156.43a9.08,9.08,0,0,1-4.31-1,7.12,7.12,0,0,1-2.85-2.69,7.46,7.46,0,0,1-1-3.92,7.68,7.68,0,0,1,1-3.92,7.12,7.12,0,0,1,2.71-2.68,7.83,7.83,0,0,1,3.95-1,7.67,7.67,0,0,1,3.85,1,7,7,0,0,1,2.66,2.67,8.22,8.22,0,0,1,1,4.07c0,.13,0,.29,0,.49s0,.36,0,.51H375v-2.3h10.49l-1.38.72a4.35,4.35,0,0,0-.51-2.23,3.89,3.89,0,0,0-1.49-1.52,4.33,4.33,0,0,0-2.21-.54,4.54,4.54,0,0,0-2.23.54,3.62,3.62,0,0,0-1.51,1.54,4.85,4.85,0,0,0-.53,2.3V149a4.54,4.54,0,0,0,.6,2.35A4,4,0,0,0,378,153a6.27,6.27,0,0,0,4.82.15,5.11,5.11,0,0,0,1.77-1.22l1.89,2.16a6.55,6.55,0,0,1-2.54,1.77A9,9,0,0,1,380.46,156.43Z" transform="translate(-94.78 -110.05)"/><path class="cls-2" d="M390.76,156.24V141.45h3.29v4.07l-.38-1.19a4.57,4.57,0,0,1,2.07-2.29,7.32,7.32,0,0,1,3.52-.79v3.3l-.39,0h-.36a4.28,4.28,0,0,0-3.15,1.13,4.63,4.63,0,0,0-1.17,3.46v7.15Z" transform="translate(-94.78 -110.05)"/><path class="cls-2" d="M410.61,141.25a7,7,0,0,1,3.18.7,5.14,5.14,0,0,1,2.18,2.13,7.34,7.34,0,0,1,.82,3.68v8.48h-3.46v-8a4.21,4.21,0,0,0-.91-2.94,3.4,3.4,0,0,0-2.61-1,4.59,4.59,0,0,0-2.16.5,3.4,3.4,0,0,0-1.45,1.48,5.36,5.36,0,0,0-.52,2.48v7.48h-3.43V141.45h3.3v4l-.59-1.24a5.24,5.24,0,0,1,2.23-2.19A7.25,7.25,0,0,1,410.61,141.25Z" transform="translate(-94.78 -110.05)"/><path class="cls-2" d="M425.79,156.43a13,13,0,0,1-3.57-.48,9.93,9.93,0,0,1-2.72-1.18l1.33-2.63a9.41,9.41,0,0,0,2.39,1,9.85,9.85,0,0,0,2.79.4,4.79,4.79,0,0,0,2.34-.43,1.32,1.32,0,0,0,.74-1.18,1.06,1.06,0,0,0-.5-.93,3.93,3.93,0,0,0-1.3-.48c-.54-.11-1.13-.21-1.79-.3s-1.31-.22-2-.38a6.66,6.66,0,0,1-1.78-.69,3.45,3.45,0,0,1-1.8-3.31,3.81,3.81,0,0,1,.8-2.42,5.13,5.13,0,0,1,2.26-1.62,9.22,9.22,0,0,1,3.45-.59,13.69,13.69,0,0,1,3,.35,8.56,8.56,0,0,1,2.56,1l-1.35,2.63a7.14,7.14,0,0,0-2.11-.85,10.43,10.43,0,0,0-2.13-.23,4.75,4.75,0,0,0-2.33.45,1.35,1.35,0,0,0-.77,1.18,1.11,1.11,0,0,0,.5,1,3.83,3.83,0,0,0,1.3.51c.53.12,1.13.23,1.78.33s1.31.23,2,.39a7.71,7.71,0,0,1,1.78.67,3.39,3.39,0,0,1,1.32,1.2,3.71,3.71,0,0,1,.5,2,3.8,3.8,0,0,1-.82,2.43,5.29,5.29,0,0,1-2.3,1.57A9.92,9.92,0,0,1,425.79,156.43Z" transform="translate(-94.78 -110.05)"/><path class="cls-2" d="M443.85,141.25a7,7,0,0,1,3.17.7,5.22,5.22,0,0,1,2.19,2.13,7.45,7.45,0,0,1,.82,3.68v8.48h-3.47v-8a4.16,4.16,0,0,0-.91-2.94,3.39,3.39,0,0,0-2.6-1,4.53,4.53,0,0,0-2.16.5,3.42,3.42,0,0,0-1.46,1.48,5.37,5.37,0,0,0-.51,2.48v7.48h-3.43V135.69h3.43v9.77l-.72-1.24a5.18,5.18,0,0,1,2.23-2.19A7.25,7.25,0,0,1,443.85,141.25Z" transform="translate(-94.78 -110.05)"/><path class="cls-2" d="M456.17,139a2.18,2.18,0,0,1-1.59-.61,2,2,0,0,1-.62-1.49,2,2,0,0,1,.62-1.44,2.18,2.18,0,0,1,1.59-.61,2.29,2.29,0,0,1,1.6.57,1.87,1.87,0,0,1,.62,1.45,2.08,2.08,0,0,1-.61,1.51A2.17,2.17,0,0,1,456.17,139Zm-1.71,17.23V141.45h3.43v14.79Z" transform="translate(-94.78 -110.05)"/><path class="cls-2" d="M462.46,161.61V141.45h3.29v3.49l-.13,3.93.27,3.93v8.81Zm8.17-5.18a6.62,6.62,0,0,1-3.3-.82,5.7,5.7,0,0,1-2.32-2.5,9.3,9.3,0,0,1-.86-4.27,9.87,9.87,0,0,1,.81-4.28,5.56,5.56,0,0,1,2.32-2.49,6.9,6.9,0,0,1,3.35-.82,7.76,7.76,0,0,1,3.85.95,6.87,6.87,0,0,1,2.67,2.65,8.65,8.65,0,0,1,0,8,7,7,0,0,1-2.67,2.64A7.76,7.76,0,0,1,470.63,156.43Zm-.42-2.93a4.35,4.35,0,0,0,2.26-.59,4.18,4.18,0,0,0,1.57-1.63,5.44,5.44,0,0,0,0-4.89,4.1,4.1,0,0,0-1.57-1.6,4.44,4.44,0,0,0-2.26-.57,4.36,4.36,0,0,0-2.21.57,4.05,4.05,0,0,0-1.58,1.6,5.44,5.44,0,0,0,0,4.89,4.13,4.13,0,0,0,1.58,1.63A4.27,4.27,0,0,0,470.21,153.5Z" transform="translate(-94.78 -110.05)"/><path class="cls-2" d="M230.63,189.75a14.47,14.47,0,0,1-4.34-.65,10,10,0,0,1-3.31-1.68l1.25-2.8a10.3,10.3,0,0,0,2.88,1.53,10.64,10.64,0,0,0,3.52.61,7.57,7.57,0,0,0,2.46-.33,3.11,3.11,0,0,0,1.39-.9,2.08,2.08,0,0,0,.44-1.29,1.77,1.77,0,0,0-.64-1.43,4.79,4.79,0,0,0-1.64-.86c-.68-.21-1.43-.4-2.25-.58a24.82,24.82,0,0,1-2.46-.65,11.59,11.59,0,0,1-2.26-1,4.43,4.43,0,0,1-2.27-4.14,5.21,5.21,0,0,1,.85-2.9,5.8,5.8,0,0,1,2.57-2.1,10.54,10.54,0,0,1,4.39-.79,14,14,0,0,1,3.46.44,9.93,9.93,0,0,1,3,1.28l-1.13,2.79a11.07,11.07,0,0,0-2.69-1.15,10.14,10.14,0,0,0-2.66-.37,6.84,6.84,0,0,0-2.41.36,3,3,0,0,0-1.37,1,2.26,2.26,0,0,0-.43,1.32,1.79,1.79,0,0,0,.63,1.43,4.32,4.32,0,0,0,1.63.84c.67.2,1.43.4,2.26.58s1.65.4,2.46.65a11.4,11.4,0,0,1,2.25,1,4.77,4.77,0,0,1,1.64,1.58,4.58,4.58,0,0,1,.63,2.51,5.2,5.2,0,0,1-.85,2.86A5.77,5.77,0,0,1,235,189,10.63,10.63,0,0,1,230.63,189.75Z" transform="translate(-94.78 -110.05)"/><path class="cls-2" d="M242.68,195a6.88,6.88,0,0,1-2.19-.36,4.74,4.74,0,0,1-1.77-1l1.35-2.52a4.45,4.45,0,0,0,1.18.72,3.36,3.36,0,0,0,1.37.28,2.34,2.34,0,0,0,1.52-.47,4.23,4.23,0,0,0,1.08-1.61l.83-1.88.34-.45L252,174.68h3.33l-6.93,16a9.57,9.57,0,0,1-1.53,2.59,4.87,4.87,0,0,1-1.89,1.36A6.33,6.33,0,0,1,242.68,195Zm3-5L239,174.68h3.57l5.46,12.77Z" transform="translate(-94.78 -110.05)"/><path class="cls-2" d="M261.84,189.67a12.94,12.94,0,0,1-3.57-.49,9.36,9.36,0,0,1-2.72-1.18l1.33-2.63a9.07,9.07,0,0,0,2.39,1,9.85,9.85,0,0,0,2.79.4,4.79,4.79,0,0,0,2.34-.43,1.3,1.3,0,0,0,.74-1.17,1,1,0,0,0-.5-.93,3.93,3.93,0,0,0-1.3-.49c-.54-.11-1.13-.21-1.79-.3s-1.31-.22-2-.37a6.68,6.68,0,0,1-1.78-.7,3.57,3.57,0,0,1-1.3-1.23,3.75,3.75,0,0,1-.5-2.08,3.81,3.81,0,0,1,.8-2.42,5.3,5.3,0,0,1,2.26-1.62,9.23,9.23,0,0,1,3.45-.58,13.67,13.67,0,0,1,3,.34,8.84,8.84,0,0,1,2.56,1l-1.35,2.63a7.11,7.11,0,0,0-2.11-.84,9.8,9.8,0,0,0-2.13-.24,4.63,4.63,0,0,0-2.33.46,1.33,1.33,0,0,0-.77,1.18,1.11,1.11,0,0,0,.49,1,4,4,0,0,0,1.31.51c.53.12,1.13.24,1.78.34s1.31.23,2,.38a7.71,7.71,0,0,1,1.78.67,3.55,3.55,0,0,1,1.32,1.2,4.15,4.15,0,0,1-.32,4.45,5.39,5.39,0,0,1-2.3,1.58A9.92,9.92,0,0,1,261.84,189.67Z" transform="translate(-94.78 -110.05)"/><path class="cls-2" d="M269.54,177.56v-2.77h9.86v2.77Zm7.53,12.11a5.24,5.24,0,0,1-3.76-1.26,4.86,4.86,0,0,1-1.33-3.7v-13.3h3.43V184.6a2.27,2.27,0,0,0,.56,1.63,2,2,0,0,0,1.55.58,2.87,2.87,0,0,0,1.88-.61l1,2.47a4.56,4.56,0,0,1-1.53.75A6.86,6.86,0,0,1,277.07,189.67Z" transform="translate(-94.78 -110.05)"/><path class="cls-2" d="M289.7,189.67a8.92,8.92,0,0,1-4.3-1,7.18,7.18,0,0,1-2.86-2.68,8.18,8.18,0,0,1,0-7.84,7.14,7.14,0,0,1,2.71-2.69,7.9,7.9,0,0,1,3.95-1,7.76,7.76,0,0,1,3.85.95,6.9,6.9,0,0,1,2.65,2.68,8.09,8.09,0,0,1,1,4.07c0,.13,0,.29,0,.48s0,.37,0,.52H284.27v-2.3h10.5l-1.38.72a4.43,4.43,0,0,0-.52-2.23,3.83,3.83,0,0,0-1.48-1.53,4.39,4.39,0,0,0-2.21-.54,4.52,4.52,0,0,0-2.23.54,3.68,3.68,0,0,0-1.51,1.54,4.88,4.88,0,0,0-.53,2.3v.55a4.6,4.6,0,0,0,.6,2.36,4,4,0,0,0,1.7,1.59,5.57,5.57,0,0,0,2.58.57,5.73,5.73,0,0,0,2.24-.42,5.16,5.16,0,0,0,1.77-1.22l1.88,2.16a6.57,6.57,0,0,1-2.53,1.78A9.31,9.31,0,0,1,289.7,189.67Z" transform="translate(-94.78 -110.05)"/><path class="cls-2" d="M318.64,174.49a7,7,0,0,1,3.15.69,4.89,4.89,0,0,1,2.14,2.13,7.71,7.71,0,0,1,.78,3.69v8.47h-3.44v-8a4.3,4.3,0,0,0-.87-2.94,3.18,3.18,0,0,0-2.48-1,4,4,0,0,0-2,.49,3.34,3.34,0,0,0-1.36,1.49,5.4,5.4,0,0,0-.49,2.45v7.5h-3.43v-8a4.3,4.3,0,0,0-.87-2.94,3.2,3.2,0,0,0-2.48-1,4,4,0,0,0-2,.49,3.46,3.46,0,0,0-1.36,1.49,5.54,5.54,0,0,0-.48,2.45v7.5H300V174.68h3.3v4l-.61-1.19a5.26,5.26,0,0,1,2.17-2.19,6.89,6.89,0,0,1,3.29-.77,6.34,6.34,0,0,1,3.6,1,5,5,0,0,1,2,3.16l-1.33-.5a5.78,5.78,0,0,1,2.35-2.66A7.21,7.21,0,0,1,318.64,174.49Z" transform="translate(-94.78 -110.05)"/></svg>